<?xml version="1.0" encoding="UTF-8"?>
<svg width="30px" height="30px" viewBox="0 0 30 30" version="1.1" xmlns="http://www.w3.org/2000/svg" xmlns:xlink="http://www.w3.org/1999/xlink">
    <title>编组 2</title>
    <g id="4门店" stroke="none" stroke-width="1" fill="none" fill-rule="evenodd">
        <g id="4门店列表-展开搜索（管理员）" transform="translate(-15.000000, -14.000000)">
            <g id="编组-2" transform="translate(15.000000, 14.000000)">
                <path d="M25.0449903,0 L4.95500966,0 C2.2191554,0 0,2.2190329 0,4.95639214 L0,25.0436079 C0,27.7809671 2.2191554,30 4.95500966,30 L25.0449903,30 C27.7808446,30 30,27.7809671 30,25.0436079 L30,4.95639214 C30,2.2190329 27.7808446,0 25.0449903,0 L25.0449903,0 Z" id="Path" fill="#2CACCE"></path>
                <path d="M22.1286227,17.2803047 L15.0223572,17.2803047 C13.9094673,17.2803047 13.0085564,16.3794436 13.0085564,15.2666151 C13.0085564,14.1537867 13.9094673,13.2529256 15.0223572,13.2529256 L22.1286227,13.2529256 C23.2415126,13.2529256 24.1424234,14.1537867 24.1424234,15.2666151 C24.1424234,16.3794436 23.2415126,17.2803047 22.1286227,17.2803047 L22.1286227,17.2803047 Z" id="Path" fill="#FFFFFF"></path>
                <path d="M24.1424234,24.4226098 C24.1424234,25.1015677 23.5926028,25.6513579 22.9152636,25.6513579 L12.7717361,25.6513579 C8.60171129,25.6513579 5.19017389,22.2383528 5.19017389,18.0702142 L5.19017389,12.8587989 C5.19017389,8.69066019 8.60171129,5.27931111 12.7717361,5.27931111 L22.8009937,5.31739898 C23.6803754,5.31739898 24.07618,5.8754692 24.07618,6.75811437 L24.07618,7.82623096 C24.07618,8.79995584 23.4683964,9.26860234 22.4962738,9.26860234 L13.6908639,9.26860234 C11.4750207,9.26860234 9.6616064,11.0819165 9.6616064,13.2976374 L9.6616064,17.6313756 C9.6616064,19.8470965 11.4750207,21.6620667 13.6908639,21.6620667 L22.9152636,21.6620667 C23.5926028,21.6620667 24.1424234,22.2102009 24.1424234,22.8875028 L24.1424234,24.4226098 Z" id="Path" fill="#FFFFFF"></path>
            </g>
        </g>
    </g>
</svg>